HIERARCHY
ROOT Hips
{
  OFFSET 0.382225 96.6805 0.598322
  CHANNELS 6 Xposition Yposition Zposition Zrotation Xrotation Yrotation
  JOINT Spine
  {
    OFFSET 10.8089 -0.851416 0
    CHANNELS 3 Zrotation Xrotation Yrotation
    JOINT Spine1
    {
      OFFSET 18.8753 3.80116 0
      CHANNELS 3 Zrotation Xrotation Yrotation
      JOINT Spine2
      {
        OFFSET 13.4073 0.420477 0
        CHANNELS 3 Zrotation Xrotation Yrotation
        JOINT LeftShoulder
        {
          OFFSET 11.8837 -2.73209 -3.78198
          CHANNELS 3 Zrotation Xrotation Yrotation
          JOINT LeftArm
          {
            OFFSET 15.7849 0 -2.35849e-005
            CHANNELS 3 Zrotation Xrotation Yrotation
            JOINT LeftForeArm
            {
              OFFSET 30.3399 0 0
              CHANNELS 3 Zrotation Xrotation Yrotation
              JOINT LeftHand
              {
                OFFSET 26.9751 0 2.45913e-005
                CHANNELS 3 Zrotation Xrotation Yrotation
                End Site
                {
                  OFFSET 8 0 0
                }
              }
            }
          }
        }
        JOINT RightShoulder
        {
          OFFSET 11.8838 -2.7321 3.782
          CHANNELS 3 Zrotation Xrotation Yrotation
          JOINT RightArm
          {
            OFFSET -15.7848 0 -1.07056e-005
            CHANNELS 3 Zrotation Xrotation Yrotation
            JOINT RightForeArm
            {
              OFFSET -30.34 1.02096e-005 -2.53607e-005
              CHANNELS 3 Zrotation Xrotation Yrotation
              JOINT RightHand
              {
                OFFSET -26.9752 2.07668e-005 0
                CHANNELS 3 Zrotation Xrotation Yrotation
                End Site
                {
                  OFFSET -8 0 0
                }
              }
            }
          }
        }
        JOINT Neck
        {
          OFFSET 16.5588 -0.355318 0
          CHANNELS 3 Zrotation Xrotation Yrotation
          JOINT Head
          {
            OFFSET 9.28361 0.364157 0
            CHANNELS 3 Zrotation Xrotation Yrotation
            End Site
            {
              OFFSET 0 0 0
            }
          }
        }
      }
    }
  }
  JOINT LeftUpLeg
  {
    OFFSET -1.44883 -0.531424 -9.00581
    CHANNELS 3 Zrotation Xrotation Yrotation
    JOINT LeftLeg
    {
      OFFSET -42.572 0.0788889 -0.011964
      CHANNELS 3 Zrotation Xrotation Yrotation
      JOINT LeftFoot
      {
        OFFSET -40.1967 0 0
        CHANNELS 3 Zrotation Xrotation Yrotation
				JOINT LeftToe
        {
          OFFSET -10.4538 -16.5779 0.0801563
          CHANNELS 3 Zrotation Xrotation Yrotation
          End Site
          {
            OFFSET -1.0 -1.0 0.0
          }
        }
      }
    }
  }
  JOINT RightUpLeg
  {
    OFFSET -1.44865 -0.531427 9.0058
    CHANNELS 3 Zrotation Xrotation Yrotation
    JOINT RightLeg
    {
      OFFSET 42.5723 -3.24776e-005 0
      CHANNELS 3 Zrotation Xrotation Yrotation
      JOINT RightFoot
      {
        OFFSET 40.1968 0 -1.14003e-005
        CHANNELS 3 Zrotation Xrotation Yrotation
				JOINT RightToe
        {
          OFFSET 10.4538 16.5778 -0.0801573
          CHANNELS 3 Zrotation Xrotation Yrotation
          End Site
          {
            OFFSET -1.0 -1.0 0.0
          }
        }
      }
    }
  }
}
MOTION
Frames:	12
Frame Time:	0.0333333
104.527 96.5654 -5.37141 -20.8227 -83.3246 -112.172 -5.17577 -2.77866 3.1017 20.1603 -0.328276 -0.570841 2.7794 1.93418e-006 1.65929e-005 -0.546335 16.1919 72.3186 -19.1762 13.8394 10.8954 2.52761 -15.0221 8.87649 -43.5159 -64.3044 -40.0776 -177.003 10.6593 74.8785 -15.3878 -12.9562 11.9291 -6.11035 -6.91681 -0.291877 2.37401 -60.2139 11.4727 -23.508 4.63459e-006 -5.90926e-006 7.73166 -14.0576 1.36024 4.43624 28.6808 1.1598 -0.0877803 -5.99081 2.57476 0.303686 -7.00627 1.88286 -90 0 0 -169.624 15.0894 -3.31442 -8.21849 -5.75229 1.69077 5.92207 -3.70652 0.811223 -90 0 0
104.376 96.5714 -5.35177 -19.951 -83.3465 -111.305 -5.13732 -2.7835 3.09885 20.1976 -0.330468 -0.574216 2.7794 1.93418e-006 1.65929e-005 -0.548485 16.2171 72.3478 -19.2248 13.881 10.9434 2.37475 -15.0671 8.79516 -43.5478 -64.3535 -40.2802 -176.997 10.7211 74.8543 -15.2282 -12.8753 11.9911 -6.17388 -6.92161 -0.295174 2.36185 -60.1169 11.4298 -23.508 4.63459e-006 -5.90926e-006 7.86568 -14.1354 1.23766 4.52398 28.5772 1.03708 -0.107342 -5.98252 2.57115 0.281013 -7.00389 2.02979 -90 0 0 -169.666 15.1052 -3.21951 -8.206 -5.75037 1.69221 5.92589 -3.57647 0.750049 -90 0 0
104.246 96.5716 -5.3378 -19.0529 -83.3371 -110.41 -5.09931 -2.80396 3.10682 20.2542 -0.333804 -0.578401 2.7794 1.93418e-006 1.65929e-005 -0.546403 16.2238 72.3428 -19.2311 13.7647 10.9403 2.46353 -15.0668 8.83807 -43.6718 -64.136 -40.195 -177.008 10.8054 74.8959 -15.142 -12.7555 11.9592 -6.15923 -6.92379 -0.294381 2.17335 -60.055 11.3363 -23.508 4.63459e-006 -5.90926e-006 7.99643 -14.1775 1.12372 4.61705 28.504 0.944434 -0.113732 -5.98088 2.57348 0.261386 -7.02469 2.11772 -90 0 0 -169.713 15.0819 -3.12853 -8.11336 -5.74933 1.70667 5.95488 -3.51596 0.567937 -90 0 0
104.127 96.5689 -5.30017 -18.3733 -83.3849 -109.733 -5.0924 -2.87641 3.11944 20.2778 -0.334709 -0.581492 2.7794 1.93418e-006 1.65929e-005 -0.528685 16.2365 72.2738 -19.2119 13.849 10.9743 2.39402 -15.0671 8.80446 -43.5374 -64.2668 -40.2187 -177.018 10.858 74.9324 -15.0119 -12.8472 12.0045 -6.20659 -6.92523 -0.294321 2.131 -60.2253 11.1378 -23.508 4.63459e-006 -5.90926e-006 8.06386 -14.1464 1.02966 4.60704 28.2713 0.862585 -0.0805262 -5.98204 2.5743 0.247136 -6.85665 2.1714 -90 0 0 -169.766 15.1418 -3.05091 -8.15466 -5.74858 1.70001 5.9351 -3.45034 0.604952 -90 0 0
104.054 96.5648 -5.28778 -18.6143 -83.3645 -109.974 -5.09727 -2.83391 3.12028 20.3132 -0.334513 -0.58118 2.7794 1.93418e-006 1.65929e-005 -0.519608 16.246 72.2388 -19.1705 13.8004 10.9614 2.52454 -15.0665 8.86762 -43.5399 -64.1337 -40.0488 -177.026 10.9002 74.9568 -14.9531 -12.843 11.9882 -6.16937 -6.92606 -0.294403 2.05775 -60.2973 11.0351 -23.508 4.63459e-006 -5.90926e-006 8.14624 -14.1169 1.02499 4.64546 28.4303 0.801723 -0.115006 -5.98487 2.56462 0.260453 -6.99305 2.19321 -90 0 0 -169.809 15.0561 -2.98891 -8.09072 -5.74799 1.71025 5.91697 -3.41018 0.514539 -90 0 0
103.999 96.5619 -5.26582 -19.0875 -83.3925 -110.447 -5.10444 -2.81974 3.13469 20.256 -0.333904 -0.579496 2.7794 1.93418e-006 1.65929e-005 -0.498066 16.2645 72.1507 -19.1106 13.7711 10.9613 2.52402 -14.9913 8.87987 -43.365 -64.1575 -39.9504 -177.032 10.9549 74.9764 -14.932 -12.9496 11.9948 -6.12953 -6.92639 -0.294614 1.95971 -60.1293 10.9548 -23.508 4.63459e-006 -5.90926e-006 8.21813 -14.0701 1.00342 4.61212 28.404 0.755607 -0.143754 -5.98812 2.56356 0.290246 -6.92143 2.2324 -90 0 0 -169.884 14.9993 -2.95032 -8.08587 -5.74759 1.71189 5.98014 -3.41074 0.422978 -90 0 0
103.952 96.5633 -5.24863 -19.6891 -83.3896 -111.035 -5.12978 -2.82941 3.13943 20.2355 -0.332697 -0.577645 2.7794 1.93418e-006 1.65929e-005 -0.459097 16.3642 72.0534 -19.0846 13.8344 10.9242 2.5303 -15.0667 8.87028 -43.5172 -64.1709 -40.1195 -177.038 10.9714 75.0001 -14.9495 -12.8897 11.9935 -6.14428 -6.92636 -0.294938 1.81264 -60.3222 10.7664 -23.508 4.63459e-006 -5.90926e-006 8.23261 -14.0574 0.944291 4.61402 28.4514 0.686419 -0.179144 -5.99062 2.56733 0.3219 -6.91586 2.2713 -90 0 0 -169.952 14.9591 -2.88834 -8.0146 -5.7473 1.72255 5.86067 -3.36513 0.47918 -90 0 0
103.919 96.5609 -5.23671 -20.2417 -83.3834 -111.578 -5.14223 -2.84484 3.15817 20.2347 -0.33147 -0.575642 2.7794 1.93418e-006 1.65929e-005 -0.433101 16.393 71.9587 -19.0364 13.8743 10.8904 2.51331 -15.0666 8.86217 -43.5659 -64.0232 -40.1762 -177.048 10.9916 75.0318 -14.9563 -12.949 11.9983 -6.1528 -6.92608 -0.295363 1.71282 -60.3558 10.6954 -23.508 4.63459e-006 -5.90926e-006 8.11315 -14.0519 0.894121 4.56892 28.5417 0.663255 -0.165244 -5.99119 2.57865 0.339946 -6.93349 2.24509 -90 0 0 -169.994 14.915 -2.84743 -7.99221 -5.74714 1.7266 5.88203 -3.38763 0.416248 -90 0 0
103.918 96.5599 -5.21873 -20.9309 -83.4118 -112.267 -5.18813 -2.83943 3.16371 20.2182 -0.330206 -0.573525 2.7794 1.93418e-006 1.65929e-005 -0.419368 16.4101 71.907 -19.0238 13.9052 10.8609 2.51742 -15.0663 8.86419 -43.6789 -64.0818 -40.2835 -177.053 10.9927 75.0478 -14.9449 -12.9376 12.0001 -6.16375 -6.92569 -0.295874 1.762 -60.4311 10.7457 -23.508 4.63459e-006 -5.90926e-006 7.96342 -14.0857 0.907834 4.53288 28.5668 0.662449 -0.199052 -5.98838 2.56058 0.357975 -6.90364 2.21156 -90 0 0 -170.027 14.8829 -2.83897 -8.04473 -5.74708 1.72516 5.8413 -3.37658 0.485517 -90 0 0
103.906 96.5609 -5.20196 -21.0677 -83.4345 -112.397 -5.189 -2.86239 3.18869 20.1646 -0.328934 -0.571387 2.7794 1.93418e-006 1.65929e-005 -0.398658 16.4179 71.8193 -19.084 13.9443 10.8815 2.50441 -15.0665 8.85772 -43.471 -64.0634 -40.0462 -177.056 11.0694 75.0593 -14.9508 -13.0253 12.0253 -6.16257 -6.92531 -0.296458 1.70122 -60.389 10.6299 -23.508 4.63459e-006 -5.90926e-006 7.85273 -14.1356 0.85822 4.37981 28.5055 0.657473 -0.0318143 -5.97815 2.6135 0.316612 -6.85346 2.19654 -90 0 0 -170.086 14.8611 -2.82336 -8.01111 -5.74707 1.72117 5.85518 -3.38112 0.424457 -90 0 0
103.916 96.559 -5.19384 -21.0503 -83.4429 -112.379 -5.18998 -2.89638 3.20804 20.1325 -0.327684 -0.569322 2.7794 1.93418e-006 1.65929e-005 -0.38686 16.4301 71.7724 -19.1528 13.8969 10.9159 2.48924 -15.0667 8.85045 -43.366 -63.98 -39.888 -177.063 11.1296 75.0838 -14.9482 -13.0359 12.0227 -6.17818 -6.92506 -0.297101 1.64021 -60.4268 10.5934 -23.508 4.63459e-006 -5.90926e-006 7.72942 -14.1301 0.819285 4.48322 28.5224 0.654446 -0.192049 -5.98052 2.56595 0.370286 -6.87534 2.17683 -90 0 0 -170.102 14.9095 -2.82987 -8.00524 -5.74709 1.71729 5.89418 -3.44346 0.366705 -90 0 0
103.928 96.5614 -5.18032 -21.1534 -83.4583 -112.472 -5.2256 -2.96135 3.21524 20.1602 -0.326487 -0.567423 2.7794 1.93418e-006 1.65929e-005 -0.377965 16.4547 71.7546 -19.2215 13.9925 10.966 2.38817 -15.0686 8.80153 -43.36 -64.1536 -40.0466 -177.075 11.1024 75.124 -14.9087 -13.0296 12.0331 -6.18827 -6.92507 -0.29779 1.66301 -60.5732 10.6586 -23.508 4.63459e-006 -5.90926e-006 7.55657 -14.0537 0.792968 4.40583 28.5328 0.659387 -0.122417 -5.96962 2.59096 0.35684 -6.88812 2.17805 -90 0 0 -170.101 14.8944 -2.82899 -8.05379 -5.74708 1.71621 5.84446 -3.38623 0.505484 -90 0 0
